<?xml version="1.0" standalone="no"?>
<!DOCTYPE svg PUBLIC "-//W3C//DTD SVG 20010904//EN"
 "http://www.w3.org/TR/2001/REC-SVG-20010904/DTD/svg10.dtd">
<svg version="1.0" xmlns="http://www.w3.org/2000/svg"
 width="420.000000pt" height="223.000000pt" viewBox="0 0 420.000000 223.000000"
 preserveAspectRatio="xMidYMid meet">

<g transform="translate(0.000000,223.000000) scale(0.100000,-0.100000)"
fill="#000000" stroke="none">
<path d="M3170 1866 l0 -34 62 -7 c328 -38 574 -287 619 -627 13 -98 13 -98
41 -98 38 0 42 14 28 107 -49 338 -276 597 -590 673 -47 11 -102 20 -122 20
-36 0 -38 -1 -38 -34z"/>
<path d="M3170 1667 l0 -33 71 -11 c221 -35 397 -227 425 -465 l6 -58 35 0 35
0 -7 53 c-20 162 -75 278 -181 384 -99 98 -240 163 -354 163 -27 0 -30 -3 -30
-33z"/>
<path d="M2980 1510 c-59 -14 -60 -20 -60 -272 l0 -228 -199 0 c-210 0 -255
-7 -265 -43 -11 -44 2 -47 240 -47 l224 0 0 -240 0 -240 26 -10 c34 -13 92 -2
115 21 17 17 19 38 19 244 l0 225 206 0 206 0 30 30 c25 25 28 33 18 45 -10
12 -51 15 -236 15 l-224 0 0 243 c0 176 -3 246 -12 255 -13 13 -36 14 -88 2z"/>
<path d="M3170 1465 c0 -31 3 -35 25 -35 41 0 129 -38 171 -74 51 -44 101
-136 110 -204 7 -51 7 -52 41 -52 l35 0 -6 48 c-23 163 -129 295 -272 338 -26
8 -60 14 -76 14 -25 0 -28 -3 -28 -35z"/>
<path d="M1614 1475 c-186 -33 -334 -171 -390 -360 -26 -89 -23 -241 5 -325
72 -210 247 -333 476 -333 155 0 264 44 364 147 120 126 170 299 138 481 -37
207 -183 354 -387 391 -90 16 -114 16 -206 -1z m234 -128 c51 -34 94 -91 124
-166 20 -49 22 -74 23 -211 0 -123 -4 -166 -18 -210 -43 -132 -133 -200 -261
-200 -121 1 -196 48 -247 154 -42 87 -52 152 -47 295 6 159 28 222 102 296 62
62 97 74 202 72 69 -2 86 -6 122 -30z"/>
<path d="M785 1468 c-55 -5 -150 -7 -211 -4 -61 2 -116 1 -123 -3 -18 -11 -18
-62 -1 -72 8 -5 34 -13 57 -19 24 -6 55 -21 70 -34 l28 -24 3 -336 c3 -384 4
-379 -77 -420 -54 -28 -66 -47 -50 -78 10 -18 16 -19 62 -13 29 5 135 9 237
11 102 1 188 3 191 3 10 1 18 41 12 57 -3 7 -31 21 -64 30 -67 19 -106 52
-114 98 -3 17 -5 171 -3 342 3 355 -1 337 94 379 55 24 70 45 54 76 -12 21
-12 21 -165 7z"/>
<path d="M3223 1290 c-26 -11 -53 -59 -53 -94 0 -14 12 -39 28 -55 59 -65 152
-29 152 58 0 69 -66 117 -127 91z"/>
</g>
</svg>
