<?xml version="1.0" standalone="no"?>
<!DOCTYPE svg PUBLIC "-//W3C//DTD SVG 20010904//EN"
 "http://www.w3.org/TR/2001/REC-SVG-20010904/DTD/svg10.dtd">
<svg version="1.0" xmlns="http://www.w3.org/2000/svg"
 width="1460.000000pt" height="620.000000pt" viewBox="0 0 1460.000000 620.000000"
 preserveAspectRatio="xMidYMid meet">

<g transform="translate(0.000000,620.000000) scale(0.100000,-0.100000)"
fill="#000000" stroke="none">
<path d="M11480 6170 c-54 -13 -60 -30 -60 -162 0 -114 1 -118 23 -122 12 -3
90 -12 172 -21 513 -55 942 -206 1340 -470 569 -377 992 -959 1189 -1635 52
-178 83 -326 116 -565 49 -348 54 -358 172 -357 90 1 117 19 137 88 12 42 11
69 -3 197 -78 702 -320 1316 -723 1838 -106 138 -381 416 -518 525 -236 187
-596 393 -855 488 -350 128 -860 229 -990 196z"/>
<path d="M11460 5334 c-34 -14 -40 -37 -40 -155 l0 -116 173 -27 c308 -49 459
-92 672 -196 557 -269 989 -805 1154 -1430 35 -135 56 -253 71 -405 6 -60 13
-125 16 -142 l5 -33 144 0 c138 0 145 1 145 20 0 53 -54 411 -81 535 -65 298
-194 614 -346 845 -362 550 -928 949 -1533 1080 -94 21 -349 36 -380 24z"/>
<path d="M10670 4559 c-116 -24 -190 -57 -217 -95 -29 -40 -51 -122 -63 -234
-7 -55 -14 -448 -17 -932 l-6 -838 -681 0 c-682 0 -895 -8 -1035 -36 -142 -29
-190 -66 -212 -162 -32 -138 25 -158 496 -172 171 -5 563 -9 872 -10 l563 0 2
-997 3 -998 70 -29 c63 -27 81 -30 185 -30 96 -1 127 3 189 23 145 48 193 110
211 271 6 54 13 455 17 928 l6 832 852 0 852 0 106 109 c58 60 109 120 113
135 20 79 -31 109 -211 125 -71 7 -443 11 -916 11 l-796 0 -6 878 c-6 857 -14
1092 -40 1169 -17 54 -60 73 -162 72 -44 0 -123 -9 -175 -20z"/>
<path d="M11463 4501 c-35 -16 -43 -43 -43 -146 0 -89 2 -98 25 -120 19 -20
34 -25 78 -25 165 0 504 -143 689 -291 120 -95 244 -262 344 -462 71 -141 109
-257 135 -409 25 -150 35 -185 59 -198 10 -6 73 -13 139 -17 107 -5 121 -4
121 10 0 39 -33 260 -51 345 -129 596 -546 1079 -1079 1251 -166 53 -367 83
-417 62z"/>
<path d="M5255 4454 c-116 -13 -417 -68 -511 -95 -327 -92 -602 -251 -853
-494 -268 -260 -436 -528 -557 -890 -143 -428 -134 -1085 22 -1502 242 -650
747 -1100 1409 -1256 193 -46 331 -60 560 -60 612 1 1037 162 1442 546 225
213 426 521 538 821 47 129 99 331 121 481 26 177 24 493 -5 683 -72 472 -248
845 -545 1150 -318 327 -673 503 -1185 587 -149 24 -353 38 -436 29z m419
-484 c235 -47 513 -306 677 -631 60 -120 116 -267 133 -352 23 -111 36 -360
36 -702 0 -607 -32 -818 -162 -1080 -175 -350 -446 -552 -813 -605 -92 -13
-284 -13 -382 1 -438 59 -708 297 -902 793 -111 284 -146 595 -122 1090 32
651 110 880 401 1180 209 215 331 287 541 316 86 12 519 5 593 -10z"/>
<path d="M1945 4413 c-94 -6 -530 -43 -595 -50 -36 -4 -331 -7 -657 -8 l-591
0 -25 -23 c-42 -40 -60 -151 -36 -223 23 -69 40 -78 236 -134 160 -46 277
-105 374 -188 l76 -65 6 -558 c11 -853 8 -1983 -4 -2114 -19 -208 -54 -309
-132 -375 -22 -19 -89 -60 -150 -92 -130 -68 -215 -128 -241 -174 -24 -41 -24
-105 2 -155 42 -82 72 -91 243 -70 68 8 207 20 309 26 214 12 969 30 1275 30
168 0 215 3 231 15 42 29 66 201 34 239 -23 29 -123 74 -257 117 -288 93 -426
208 -475 396 -17 64 -16 2091 1 2386 23 397 62 488 244 572 40 18 116 53 169
78 158 74 233 161 209 243 -14 49 -40 93 -64 108 -25 16 -107 24 -182 19z"/>
<path d="M11665 3642 c-127 -43 -255 -259 -243 -411 3 -31 15 -78 28 -105 37
-77 140 -180 219 -218 59 -30 74 -33 156 -33 78 0 97 4 147 28 230 113 266
466 66 653 -71 67 -145 97 -243 101 -55 1 -96 -3 -130 -15z"/>
</g>
</svg>
